<?xml version="1.0" standalone="no"?>
<!DOCTYPE svg PUBLIC "-//W3C//DTD SVG 20010904//EN"
 "http://www.w3.org/TR/2001/REC-SVG-20010904/DTD/svg10.dtd">
<svg version="1.0" 
  xmlns="http://www.w3.org/2000/svg" viewBox="0 0 300.000000 238.000000" preserveAspectRatio="xMidYMid meet">
  <metadata>
Created by potrace 1.10, written by Peter Selinger 2001-2011
  </metadata>
  <g transform="translate(0.000000,238.000000) scale(0.050000,-0.050000)" stroke="none">
    <path d="M2957 4622 c-81 -54 -239 -176 -352 -270 -240 -200 -201 -191 -406
-100 -196 86 -184 97 -248 -211 l-52 -248 -164 -202 c-90 -110 -198 -242 -239
-292 -95 -115 -97 -103 39 -196 272 -184 423 -469 328 -618 -28 -46 -366 91
-553 224 -128 91 -128 89 -7 -131 223 -406 444 -696 494 -650 221 199 540 92
681 -229 172 -389 135 -630 -96 -628 -67 0 -122 -4 -122 -10 0 -25 326 -666
422 -829 123 -209 122 -210 159 126 75 680 -29 1311 -277 1676 -474 698 -440
1258 96 1605 429 276 833 150 1075 -336 162 -325 113 -626 -187 -1163 -334
-598 -353 -645 -340 -830 18 -253 97 -890 110 -890 28 1 310 447 412 650 118
236 132 283 75 260 -281 -117 -369 70 -178 376 195 314 377 377 632 218 57
-35 112 -60 122 -54 63 39 467 810 425 810 -7 0 -105 -49 -219 -110 -275 -147
-334 -141 -375 36 -33 140 113 356 314 464 95 50 100 30 -83 332 -154 255
-156 261 -141 354 23 138 21 324 -2 324 -12 0 -80 -27 -153 -60 -73 -33 -142
-60 -153 -60 -11 0 -151 128 -312 285 -267 260 -521 475 -562 475 -9 0 -83
-44 -163 -98z"/>
    <path d="M2946 3422 c-47 -53 -134 -169 -195 -257 l-110 -160 78 -121 c86
-134 306 -364 347 -364 57 0 292 290 353 437 31 76 -24 180 -222 420 -139 169
-142 169 -251 45z"/>
  </g>
</svg>
