<svg viewBox="-78 0 1166 1166.2521" 
  xmlns="http://www.w3.org/2000/svg">
  <path d="m979.714844 298.589844c-79.6875-171.351563-246.8125-285.300782-435.425782-296.882813l-19.03125-1.707031-16.851562.425781c-58.1875 2.140625-115.21875 16.882813-167.136719 43.246094-138.035156 69.015625-225.042969 210.300781-224.535156 364.636719v72.359375l-113.835937 189.726562c-3.605469 5.988281-3.703126 13.480469-.253907 19.574219 3.457031 6.089844 9.914063 9.855469 16.917969 9.855469h121.667969l-11.792969 175.167969c-9.027344 51.828124 25.125 101.34375 76.789062 111.296874 1.28125.269532 2.585938.390626 3.878907.390626.695312 0 1.402343-.035157 2.078125-.113282l118.335937-12.832031v173.082031c0 10.742188 8.683594 19.4375 19.425781 19.4375h466.429688c10.730469 0 19.429688-8.695312 19.429688-19.4375v-193.144531l151.875-375.230469c33.378906-90.847656 30.535156-191.046875-7.964844-279.851562zm-28.355469 265.953125-153.007813 378.035156c-1.074218 2.777344-1.46875 5.761719-1.191406 8.710937 0 .414063-.230468.730469-.230468 1.144532v174.914062h-427.546876v-174.875c0-.410156-.21875-.746094-.238281-1.160156-.019531-.40625.171875-.859375.117188-1.308594-.253907-1.125-.605469-2.230468-1.042969-3.300781-.210938-.804687-.460938-1.617187-.761719-2.390625-.804687-1.734375-1.859375-3.324219-3.128906-4.734375-.226563-.277344-.335937-.628906-.578125-.902344-.171875-.113281-.328125-.230469-.5-.328125-4.039062-4.058594-9.683594-6.097656-15.398438-5.582031l-136.765624 14.8125c-30.179688-7.605469-49.097657-37.496094-43.089844-68.019531l13.402344-197.835938c.765624-10.714844-7.3125-20.015625-18.027344-20.761718-1.53125 0-109.441406 0-109.441406 0l98.949218-164.902344c.167969-.402344.324219-.816406.449219-1.246094.5625-1.175781.992187-2.390625 1.300781-3.667969.390625-1.257812.648438-2.570312.769532-3.890625 0-.445312.265624-.835937.265624-1.300781v-77.78125c-.492187-139.628906 78.167969-267.492187 203.042969-330.003906 46.964844-23.851563 98.566407-37.195313 151.203125-39.109375h15.386719c180.417969 5.121094 342.5 111.597656 418.863281 275.132812 34.394532 79.449219 36.964844 169.070313 7.199219 250.351563zm0 0"/>
  <path d="m544.289062 200.625c-71.507812-60.757812-178.226562-54.273438-241.839843 14.714844-63.621094 68.992187-61.453125 175.878906 4.890625 242.238281l219.875 219.902344c3.644531 3.636719 8.589844 5.691406 13.746094 5.691406 1.117187 0 2.230468-.097656 3.328124-.285156 1.097657.1875 2.203126.285156 3.324219.285156 5.148438 0 10.097657-2.054687 13.734375-5.691406l219.882813-219.902344c66.339843-66.359375 68.503906-173.246094 4.898437-242.238281-63.621094-68.988282-170.332031-75.472656-241.839844-14.714844zm209.464844 229.480469-209.464844 209.480469-209.460937-209.480469c-53.144531-53.140625-53.144531-139.273438 0-192.40625 53.125-53.128907 139.269531-53.128907 192.386719 0l3.339844 3.347656c7.703124 7.324219 19.796874 7.324219 27.515624 0l3.304688-3.328125c53.125-53.125 139.261719-53.125 192.394531 0 53.132813 53.132812 53.132813 139.265625 0 192.394531zm0 0"/>
  <path d="m738.636719 369.445312h-70.113281l-55.917969-106.230468c-3.40625-6.726563-10.484375-10.796875-18.027344-10.375-7.511719.316406-14.167969 4.953125-17.074219 11.875l-62.199218 147.890625-44.695313-127.347657c-2.472656-7.027343-8.75-12.035156-16.148437-12.863281-7.429688-.957031-14.722657 2.535157-18.636719 8.917969l-55.6875 88.132812h-30.191407c-10.742187 0-19.425781 8.703126-19.425781 19.425782 0 10.75 8.683594 19.4375 19.425781 19.4375h40.90625c6.671876.011718 12.882813-3.402344 16.4375-9.046875l39.828126-63.203125 48.054687 136.996094c2.664063 7.613281 9.773437 12.78125 17.820313 12.992187h.613281c7.8125.019531 14.875-4.675781 17.914062-11.886719l65.863281-156.445312 42.222657 80.226562c3.367187 6.382813 9.988281 10.378906 17.199219 10.367188h81.832031c10.726562 0 19.429687-8.6875 19.429687-19.4375 0-10.722656-8.703125-19.425782-19.429687-19.425782zm0 0"/>
</svg>