<?xml version="1.0" standalone="no"?>
<!DOCTYPE svg PUBLIC "-//W3C//DTD SVG 20010904//EN"
 "http://www.w3.org/TR/2001/REC-SVG-20010904/DTD/svg10.dtd">
<svg version="1.0" xmlns="http://www.w3.org/2000/svg"
 width="900.000000pt" height="350.000000pt" viewBox="0 0 900.000000 765.000000"
 preserveAspectRatio="xMidYMid meet">
<metadata>
Created by potrace 1.10, written by Peter Selinger 2001-2011
</metadata>
<g transform="translate(0.000000,765.000000) scale(0.100000,-0.100000)"
fill="#000000" stroke="none">
<path d="M5460 7166 c0 -559 6 -526 -88 -483 -60 28 -249 79 -341 92 -30 4
-68 16 -85 26 -22 13 -76 24 -167 34 -74 8 -178 22 -231 30 -209 33 -344 -22
-589 -240 -145 -128 -273 -259 -333 -340 -48 -64 -89 -104 -146 -145 -12 -9
-27 -37 -35 -69 -7 -29 -25 -70 -38 -90 -14 -20 -39 -70 -58 -111 -18 -41 -40
-86 -49 -100 -20 -31 -50 -124 -50 -157 0 -13 -4 -32 -10 -42 -5 -10 -14 -45
-19 -77 -6 -32 -20 -106 -31 -164 -37 -188 -49 -303 -51 -480 -1 -88 16 -221
32 -256 10 -22 19 -56 19 -75 0 -19 9 -66 20 -104 11 -38 20 -85 20 -104 0
-34 20 -114 46 -181 17 -45 21 -72 34 -196 10 -104 49 -224 87 -266 23 -26
124 -91 130 -84 3 3 0 27 -5 53 -31 140 -21 407 24 648 31 165 56 292 70 358
9 37 13 81 9 97 -6 26 -1 62 35 245 5 28 14 99 20 159 10 103 37 186 59 186 5
0 18 19 29 43 25 53 47 72 101 92 23 8 54 24 69 35 85 66 125 89 200 114 46
16 100 29 120 31 20 1 85 8 144 15 117 14 131 12 318 -56 66 -25 143 -86 155
-124 7 -21 64 -60 89 -60 9 0 39 -18 67 -40 38 -30 57 -38 74 -34 17 4 42 -6
92 -38 37 -25 74 -52 82 -61 7 -9 19 -17 25 -17 10 0 136 -114 136 -123 0 -2
-35 -5 -79 -5 -60 -2 -92 -8 -135 -27 -31 -14 -63 -25 -71 -25 -7 0 -28 -12
-46 -27 -18 -16 -51 -39 -75 -53 -23 -14 -67 -41 -96 -61 -127 -85 -153 -100
-174 -95 -13 4 -38 -5 -65 -23 -58 -37 -89 -44 -179 -40 -41 1 -88 2 -105 1
-16 0 -58 9 -93 20 -56 19 -78 20 -195 15 -73 -4 -154 -13 -182 -21 -27 -8
-82 -24 -122 -35 -69 -20 -123 -55 -123 -81 0 -7 11 -25 25 -42 21 -24 24 -36
20 -76 -3 -26 -2 -41 1 -34 10 21 61 42 104 42 30 0 47 -6 65 -24 16 -16 39
-26 62 -28 48 -4 58 -32 16 -49 -15 -6 -51 -22 -78 -35 -64 -31 -78 -31 -69
-1 3 12 11 28 16 35 24 29 -12 8 -60 -35 -43 -40 -54 -57 -63 -100 -11 -46
-10 -55 5 -72 9 -10 35 -21 58 -24 23 -3 51 -16 67 -30 40 -38 59 -44 154 -52
174 -15 278 27 422 169 98 98 117 127 142 210 28 93 95 196 129 196 15 0 34
-31 34 -57 0 -10 16 -38 36 -63 20 -25 47 -65 62 -90 14 -25 38 -58 53 -75 15
-16 30 -46 34 -65 10 -48 39 -93 89 -137 23 -21 51 -51 61 -66 10 -16 35 -37
56 -48 21 -10 45 -30 54 -42 17 -26 21 -142 10 -243 -6 -50 -3 -72 14 -118 26
-71 26 -88 1 -117 -20 -24 -21 -24 -33 -4 -7 11 -28 37 -48 57 -32 33 -42 38
-83 38 -26 0 -67 -5 -92 -11 -44 -11 -44 -11 -89 30 -52 48 -61 48 -134 0 -25
-16 -50 -29 -56 -29 -7 0 -29 -11 -49 -25 -33 -22 -42 -24 -74 -15 -93 25
-152 2 -152 -62 0 -25 10 -41 44 -73 67 -62 88 -71 134 -56 47 16 86 11 90
-10 5 -26 -26 -49 -64 -49 -28 0 -38 -6 -58 -37 -13 -21 -40 -53 -59 -72 -20
-19 -39 -47 -42 -63 -5 -21 -11 -28 -22 -23 -9 3 -23 -1 -32 -8 -9 -8 -32 -17
-52 -21 -20 -3 -44 -15 -53 -25 -13 -14 -30 -19 -60 -18 -61 3 -99 -30 -107
-91 -6 -44 -22 -115 -55 -237 -7 -27 -13 -81 -13 -119 0 -41 -5 -74 -13 -84
-8 -10 -13 -45 -13 -99 0 -64 -4 -86 -15 -93 -12 -7 -17 -2 -25 21 -6 17 -28
43 -49 58 -26 17 -50 49 -73 94 -20 37 -44 72 -54 78 -10 5 -19 19 -19 30 0
13 -10 24 -30 30 -16 6 -30 17 -30 24 0 7 -6 18 -14 24 -35 29 19 -213 57
-258 8 -9 21 -37 31 -63 22 -59 52 -98 76 -98 18 0 58 -45 195 -217 35 -45 84
-97 107 -115 79 -62 138 -128 145 -160 4 -20 31 -57 74 -102 38 -39 74 -84 80
-101 6 -16 20 -48 31 -70 30 -61 46 -116 47 -160 0 -22 2 -76 3 -120 l3 -79
-39 -1 c-37 -2 -44 3 -130 93 -50 52 -102 111 -116 131 -14 21 -42 60 -63 87
-116 148 -263 393 -311 517 -21 53 -41 95 -46 92 -16 -10 -32 -95 -25 -142 3
-26 7 -69 9 -95 1 -27 7 -53 14 -60 7 -7 12 -19 12 -29 0 -9 11 -33 25 -53 16
-23 25 -51 25 -75 0 -23 6 -44 16 -52 13 -10 14 -25 9 -80 -7 -65 -6 -69 20
-94 16 -14 23 -25 16 -25 -6 0 -17 -12 -23 -26 -10 -22 -10 -28 6 -40 27 -19
47 -63 52 -114 3 -29 11 -51 24 -62 11 -9 20 -23 20 -31 0 -8 10 -21 21 -29
18 -11 20 -18 11 -34 -6 -12 -7 -26 -2 -35 10 -16 -20 -59 -40 -59 -23 0 -8
-19 18 -22 21 -2 26 -8 24 -23 -2 -11 -4 -38 -5 -60 -2 -33 -6 -41 -24 -43
-26 -4 -31 -22 -7 -22 27 0 94 23 94 32 0 4 9 8 20 8 39 0 17 -32 -30 -44 -14
-3 -39 -23 -57 -45 -29 -35 -31 -41 -20 -65 9 -20 19 -26 44 -26 30 0 32 -2
22 -23 -6 -13 -40 -39 -77 -59 -71 -38 -86 -55 -51 -60 12 -2 24 -9 27 -15 5
-18 -33 -16 -48 2 -12 14 -15 14 -36 0 -13 -8 -32 -15 -43 -15 -30 0 -51 -11
-51 -26 0 -8 -3 -14 -8 -14 -16 0 -52 32 -52 46 0 8 -13 42 -29 77 -16 34 -34
76 -41 94 -7 18 -20 35 -30 38 -10 3 -21 17 -24 31 -8 31 -26 27 -44 -9 -7
-15 -20 -27 -28 -27 -24 0 -16 -29 14 -48 26 -16 27 -19 15 -42 -17 -34 -16
-75 2 -90 8 -7 15 -19 15 -27 0 -8 6 -29 14 -46 8 -18 17 -44 20 -59 3 -15 15
-30 26 -33 21 -7 50 -53 50 -79 0 -8 16 -23 35 -32 19 -9 35 -20 35 -24 0 -5
7 -16 16 -25 15 -15 15 -17 0 -34 -15 -17 -15 -20 1 -50 10 -17 30 -37 45 -44
20 -8 26 -17 22 -30 -16 -49 -100 -47 1642 -47 l1624 0 -12 28 c-6 15 -21 36
-33 48 -14 13 -24 37 -27 66 -3 28 -17 63 -37 91 -17 25 -31 50 -31 56 0 6
-17 28 -38 50 -20 21 -48 65 -62 97 -26 65 -58 118 -107 184 -31 40 -43 80
-25 80 8 0 131 -132 204 -219 26 -31 71 -94 99 -141 29 -47 66 -102 82 -123
16 -20 42 -65 59 -100 58 -119 55 -117 169 -117 97 0 99 0 99 23 0 13 3 27 7
30 10 11 33 -13 33 -34 0 -18 12 -19 245 -19 135 0 245 2 245 4 0 3 -13 19
-29 36 -16 18 -35 44 -42 58 -26 51 -53 82 -71 82 -19 0 -48 47 -48 80 0 27
28 26 39 -2 5 -13 17 -31 27 -40 11 -9 42 -37 71 -63 28 -25 64 -70 80 -100
l28 -55 448 0 447 0 0 3825 0 3825 -1770 0 -1770 0 0 -484z m386 -2096 c11 -5
43 -33 70 -63 73 -79 124 -193 124 -275 0 -18 6 -43 14 -55 8 -12 17 -40 21
-61 4 -22 17 -61 31 -87 51 -101 122 -299 140 -389 15 -75 19 -133 17 -275 -2
-201 -2 -203 -117 -480 l-45 -110 -43 -7 c-32 -6 -50 -16 -72 -43 -16 -20 -41
-42 -56 -50 -28 -14 -100 -145 -100 -182 0 -10 -7 -27 -15 -37 -8 -11 -15 -31
-15 -45 0 -14 -11 -39 -24 -56 -20 -25 -28 -28 -43 -19 -24 14 -36 41 -68 149
-15 50 -33 107 -41 128 -22 58 -19 106 9 116 42 17 92 90 82 122 -4 11 5 42
21 77 22 45 28 74 30 137 1 44 9 100 17 125 9 30 13 79 12 145 -2 59 2 106 8
117 9 13 9 25 0 47 -13 35 -7 44 19 30 11 -6 22 -8 26 -5 3 3 0 6 -6 6 -6 0
-15 15 -21 33 -6 18 -31 50 -55 70 -56 46 -75 96 -51 133 23 36 38 38 84 15
53 -27 92 -27 119 2 21 23 38 72 33 96 -1 8 2 68 9 133 10 103 9 121 -4 140
-11 15 -16 45 -16 87 l0 65 -71 65 c-39 36 -79 82 -89 102 -21 40 -60 70 -87
66 -10 -1 -19 3 -20 8 -1 6 6 9 17 8 11 -2 20 6 23 18 5 19 10 20 59 14 29 -4
62 -11 74 -15z m-78 -624 c5 -22 -10 -20 -42 5 -21 17 -25 24 -14 30 16 10 52
-12 56 -35z m-1760 -193 c45 -39 31 -58 -32 -49 -53 8 -67 27 -41 56 24 26 35
25 73 -7z m2536 -576 c23 -35 18 -273 -7 -311 -15 -22 -17 -33 -8 -58 15 -43
14 -112 -3 -152 -15 -36 -66 -72 -115 -82 -41 -9 -70 17 -104 94 -23 51 -25
65 -19 127 7 66 8 70 32 70 14 -1 37 -4 51 -8 23 -6 28 -3 39 23 8 20 19 30
34 30 73 0 110 116 66 211 -11 24 -20 52 -20 62 0 25 37 22 54 -6z m-1908
-508 c25 -28 11 -46 -51 -68 -28 -10 -90 -39 -139 -65 -94 -49 -116 -49 -116
-1 0 32 51 94 78 95 12 0 34 7 48 17 24 15 109 40 145 42 9 1 24 -8 35 -20z
m244 -24 c0 -14 -76 -55 -101 -55 -20 0 -7 21 29 44 43 29 72 33 72 11z m1280
-116 c0 -28 -5 -59 -10 -69 -7 -12 -7 -28 0 -44 5 -14 7 -33 4 -41 -11 -27
-37 4 -30 35 3 17 -2 37 -15 56 -10 16 -19 38 -19 49 0 17 44 64 63 65 4 0 7
-23 7 -51z m-1570 -125 c41 -9 88 -16 105 -16 16 1 34 -3 40 -7 5 -5 52 -12
103 -16 96 -7 110 -17 69 -46 -36 -26 -96 -41 -133 -35 -36 7 -97 -9 -191 -51
-28 -13 -56 -23 -60 -23 -14 0 -93 -89 -93 -104 0 -31 30 -83 55 -94 14 -7 48
-12 74 -12 26 0 93 -11 147 -24 54 -13 115 -27 135 -30 39 -7 89 -40 89 -58 0
-20 -32 -47 -48 -41 -10 3 -33 12 -52 20 -31 14 -36 14 -60 0 -14 -9 -41 -25
-61 -36 -19 -11 -48 -38 -64 -60 -31 -46 -57 -57 -106 -43 -39 10 -83 1 -110
-24 -17 -15 -21 -15 -59 0 -22 9 -57 16 -78 16 -48 0 -75 19 -109 77 -28 48
-34 111 -18 181 5 22 3 39 -7 55 -13 19 -13 33 -2 97 10 59 22 89 53 137 23
33 47 65 54 71 20 17 198 76 242 81 6 0 44 -6 85 -15z m1395 -685 c-1 -201
-12 -394 -24 -422 -6 -16 -16 -84 -22 -150 -11 -121 -35 -264 -82 -487 -14
-63 -28 -149 -31 -190 -8 -89 -28 -171 -51 -207 -14 -21 -19 -23 -30 -12 -17
18 -37 169 -30 229 7 57 -11 94 -48 98 -15 2 -27 7 -27 12 0 5 -11 21 -24 35
-21 23 -25 39 -32 143 -10 142 -10 192 0 347 6 103 11 129 37 183 16 35 46 82
67 105 50 55 116 154 147 220 72 152 113 213 140 204 6 -2 10 -44 10 -108z
m499 -999 c11 -19 13 -30 6 -30 -14 0 -49 40 -50 57 0 20 25 4 44 -27z m182
-248 c80 -78 104 -112 104 -146 0 -56 -33 -34 -68 45 -10 25 -34 56 -51 68
-17 13 -38 35 -46 51 -14 27 -19 50 -12 50 2 0 35 -30 73 -68z m-2277 -388
c21 -4 31 -12 31 -25 0 -10 5 -21 10 -24 14 -9 12 -42 -2 -48 -7 -2 -20 -1
-29 4 -13 6 -18 3 -22 -12 -5 -17 -11 -20 -36 -14 -19 4 -41 1 -58 -8 -15 -8
-39 -20 -53 -26 -14 -7 -41 -21 -60 -31 -19 -10 -50 -19 -69 -20 -30 0 -33 2
-27 25 5 20 3 25 -12 25 -27 0 -64 -30 -58 -47 3 -8 1 -23 -4 -34 -14 -25 -50
-25 -50 -1 0 11 -12 24 -26 31 -26 12 -26 12 -8 34 31 36 48 46 74 47 14 0 36
7 50 14 84 48 163 77 180 66 17 -11 5 -41 -20 -47 -28 -7 -25 -25 3 -18 12 3
53 11 90 19 102 21 141 66 56 66 -38 0 -52 13 -26 23 18 8 31 8 66 1z m3201
-65 c27 -17 50 -37 50 -44 0 -12 -26 -45 -35 -45 -6 0 -85 106 -85 113 0 14
21 6 70 -24z m-362 -62 c6 -6 20 -35 31 -64 20 -52 15 -77 -9 -47 -20 23 -59
112 -52 118 9 9 19 7 30 -7z m-2796 -15 c6 2 13 -4 15 -13 5 -22 -61 -31 -85
-12 -16 12 -16 14 2 28 13 10 24 11 37 4 10 -5 24 -8 31 -7z m3328 -83 c0 -30
-17 -31 -28 0 -6 16 -8 32 -5 35 10 10 33 -15 33 -35z m-3310 16 c10 -12 10
-18 0 -30 -7 -8 -10 -21 -7 -28 4 -10 -9 -9 -60 3 l-64 15 31 28 c34 30 80 36
100 12z m-202 -7 c-7 -20 -56 -34 -75 -22 -35 22 -26 34 27 34 37 0 50 -4 48
-12z m-113 -188 c-28 -12 -45 -12 -45 0 0 6 15 10 33 9 27 0 29 -2 12 -9z
m-60 -20 c-3 -5 -18 -10 -33 -10 -21 0 -24 2 -12 10 20 13 53 13 45 0z m3352
-15 c8 -22 -6 -33 -17 -15 -13 20 -12 30 0 30 6 0 13 -7 17 -15z m-2989 -13
c9 -6 5 -12 -13 -22 -20 -11 -28 -11 -38 -1 -20 20 23 40 51 23z m-98 -32 c0
-16 -86 -50 -126 -50 -31 0 -35 2 -24 15 7 8 20 15 30 15 10 0 23 7 30 15 14
17 90 21 90 5z m218 -58 c4 -40 -8 -41 -30 -3 -17 31 -14 44 12 39 9 -2 16
-16 18 -36z"/>
<path d="M3540 3435 c0 -13 32 -66 36 -62 6 6 -23 67 -31 67 -3 0 -5 -2 -5 -5z"/>
<path d="M3690 3131 c0 -10 7 -24 15 -31 12 -10 16 -9 21 4 3 9 4 23 0 31 -8
21 -36 19 -36 -4z"/>
<path d="M3637 2996 c-10 -26 34 -49 48 -26 8 13 -13 40 -30 40 -7 0 -15 -6
-18 -14z"/>
<path d="M3745 2840 c-4 -6 -3 -16 3 -22 6 -6 12 -6 17 2 4 6 3 16 -3 22 -6 6
-12 6 -17 -2z"/>
<path d="M3370 1192 c0 -26 37 -59 51 -45 6 6 9 21 7 34 -4 32 -58 42 -58 11z"/>
<path d="M3484 1019 c-9 -15 12 -33 30 -26 9 4 16 13 16 22 0 17 -35 21 -46 4z"/>
<path d="M3226 934 c-51 -18 -51 -18 -36 -54 14 -33 34 -38 64 -15 11 8 28 13
37 10 20 -7 34 24 24 55 -7 24 -33 25 -89 4z"/>
<path d="M3573 925 c-3 -9 -3 -18 0 -21 9 -9 27 6 27 22 0 19 -19 18 -27 -1z"/>
<path d="M3523 834 c-9 -24 10 -68 30 -72 28 -6 67 7 67 21 0 20 -49 67 -71
67 -11 0 -22 -7 -26 -16z"/>
<path d="M3282 790 c-12 -5 -25 -16 -28 -25 -4 -8 -15 -15 -25 -15 -11 0 -21
-9 -25 -25 -3 -13 -12 -29 -19 -35 -13 -11 -87 -29 -152 -37 -41 -5 -57 -23
-33 -38 6 -3 10 -14 10 -23 0 -9 16 -35 36 -56 27 -30 34 -45 29 -65 -4 -20 3
-35 30 -65 19 -22 35 -43 35 -48 0 -5 14 -17 30 -27 33 -19 70 -82 70 -116 0
-11 8 -37 19 -58 16 -31 16 -38 5 -48 -22 -18 -17 -33 27 -72 l41 -37 204 0
c122 0 204 4 204 10 0 5 -5 32 -11 59 -12 58 -45 91 -92 91 -26 0 -29 3 -22
23 26 87 22 117 -16 117 -44 0 -59 18 -59 69 0 52 -43 153 -80 186 -11 10 -20
30 -20 45 0 16 -10 35 -25 48 -16 14 -25 32 -25 51 0 41 -17 48 -44 18 -13
-14 -33 -28 -44 -32 -26 -8 -27 -18 -5 -52 16 -24 16 -26 -2 -39 -28 -21 -44
-17 -55 12 -19 49 -12 73 40 126 64 66 65 83 2 58z m154 -395 c21 -21 23 -29
14 -40 -18 -21 -33 -19 -60 9 -44 48 0 77 46 31z"/>
<path d="M2996 743 c-12 -12 -6 -33 9 -33 8 0 15 6 15 14 0 17 -14 28 -24 19z"/>
<path d="M2355 731 c-8 -15 29 -31 69 -31 29 0 36 4 36 20 0 17 -7 20 -49 20
-28 0 -52 -4 -56 -9z"/>
<path d="M3873 638 c-14 -17 -23 -98 -12 -98 12 0 23 46 14 60 -4 7 2 14 14
17 12 3 21 12 21 19 0 17 -24 18 -37 2z"/>
<path d="M2460 622 c-34 -5 -50 -20 -50 -46 0 -26 18 -46 40 -46 21 1 70 45
70 64 0 20 -28 33 -60 28z"/>
<path d="M2121 576 c-6 -7 -24 -38 -41 -69 -23 -43 -27 -57 -16 -57 8 0 24 21
36 47 11 26 28 55 36 64 9 10 11 20 6 23 -5 3 -15 0 -21 -8z"/>
<path d="M2235 532 c-17 -11 -67 -102 -63 -113 6 -17 100 77 97 96 -4 21 -19
28 -34 17z"/>
<path d="M2527 472 c-37 -15 -38 -16 -35 -60 4 -66 25 -74 77 -31 42 35 53 73
29 97 -15 15 -23 14 -71 -6z"/>
<path d="M2824 326 c-8 -20 27 -94 64 -136 26 -29 30 -41 29 -86 -1 -52 -2
-53 -28 -47 -32 6 -44 -9 -29 -37 12 -23 65 -28 73 -7 4 10 6 10 6 0 1 -16
111 -18 111 -3 0 14 -45 85 -85 135 -18 22 -35 53 -39 69 -9 39 -67 126 -84
126 -7 0 -15 -6 -18 -14z"/>
<path d="M2606 229 c-29 -34 -41 -71 -32 -94 9 -25 23 -17 56 30 19 27 39 45
50 45 22 0 26 20 8 38 -21 21 -55 13 -82 -19z"/>
<path d="M3020 236 c0 -29 19 -44 30 -25 9 14 -5 49 -20 49 -6 0 -10 -11 -10
-24z"/>
<path d="M2195 204 c-29 -26 -30 -44 -6 -107 10 -24 13 -26 32 -17 18 10 20
17 13 48 -4 21 -7 52 -7 70 1 17 0 32 -1 32 -2 0 -15 -12 -31 -26z"/>
<path d="M2293 135 c-18 -13 -53 -94 -53 -124 0 -6 20 -11 46 -11 40 0 45 2
34 15 -7 9 -10 27 -6 45 3 16 9 44 12 60 7 33 -1 37 -33 15z"/>
<path d="M2760 132 c0 -16 10 -24 63 -50 5 -2 2 9 -7 26 -13 25 -34 42 -52 42
-2 0 -4 -8 -4 -18z"/>
<path d="M3117 93 c-23 -22 8 -93 40 -93 30 0 19 82 -12 94 -20 7 -20 7 -28
-1z"/>
<path d="M2406 74 c-9 -8 -16 -20 -16 -26 0 -6 -7 -20 -17 -30 -15 -17 -14
-18 30 -18 l46 0 -4 38 c-1 20 -3 40 -4 45 -2 12 -19 8 -35 -9z"/>
<path d="M2703 28 c-37 -18 -26 -28 29 -28 50 0 51 0 33 20 -20 22 -30 24 -62
8z"/>
</g>
</svg>
