<svg _ngcontent-source-website-c1="" xml:space="preserve" id="source-logo" viewBox="0 0 94 89">
  <path fill="#1818e8" d="M90.2 18.3L50.4.6c-1.9-.8-5-.8-6.8 0L3.8 18.3c-1.9.8-1.9 2.2 0 3.1l39.8 17.7c1.9.8 5 .8 6.8 0l39.8-17.8c1.9-.8 1.9-2.2 0-3z"></path>
  <path fill="#fcb517" d="M91.4 71.8L55.2 88.3c-2.2 1-4.9-.4-4.9-2.6V75c0-1.1.7-2.1 1.8-2.6l36.2-16.3c2.2-1 4.8.4 4.8 2.6l.1 10.4c0 1.1-.7 2.1-1.8 2.7z"></path>
  <path fill="#f86a7a" d="M39.9 88.7L4 71.9c-1.8-.8-1.9-3.2 0-4L15.9 62c.8-.4 1.7-.4 2.4 0l24 10.7c.9.4 1.4 1.2 1.4 2v12c-.1 1.7-2.1 2.8-3.8 2z"></path>
  <path fill="#52c181" d="M3.9 31.3l41.3 19c.8.4 1.6.4 2.4 0l28-12.2c.8-.3 1.7-.3 2.4 0l11 4.7c2 .9 2 3.3 0 4.3L47.8 65.3c-.8.4-1.7.4-2.5 0L1.5 45.6C.6 45.2 0 44.4 0 43.5v-10c.1-1.8 2.1-2.9 3.9-2.2z"></path>
</svg>