<?xml version="1.0" standalone="no"?>
<!DOCTYPE svg PUBLIC "-//W3C//DTD SVG 20010904//EN"
 "http://www.w3.org/TR/2001/REC-SVG-20010904/DTD/svg10.dtd">
<svg version="1.0" 
  xmlns="http://www.w3.org/2000/svg" viewBox="0 0 900.000000 318.000000" preserveAspectRatio="xMidYMid meet">
  <metadata>
Created by potrace 1.10, written by Peter Selinger 2001-2011
  </metadata>
  <g transform="translate(0.000000,318.000000) scale(0.100000,-0.100000)" fill="#4756ab" stroke="none">
    <path d="M882 2558 c-54 -8 -111 -33 -147 -65 -34 -30 -75 -109 -75 -146 0
-42 -13 -54 -70 -63 -96 -15 -190 -110 -207 -209 -6 -36 -9 -257 -9 -560 2
-448 4 -505 20 -552 9 -28 23 -57 31 -63 44 -36 155 -29 255 17 30 14 73 34
96 44 23 11 47 19 54 19 6 0 23 9 36 19 20 16 36 18 96 15 58 -4 88 -12 154
-44 45 -22 88 -40 95 -40 8 0 24 -6 35 -14 22 -16 119 -36 174 -36 66 0 115
88 123 220 l4 55 74 -3 c41 -1 84 0 97 3 29 7 79 76 93 129 8 28 11 212 10
566 0 523 0 525 -23 568 -12 24 -34 53 -50 65 -108 85 -49 75 -488 80 -179 1
-349 -1 -378 -5z m762 -98 c18 -10 44 -32 58 -49 l27 -29 2 -588 c1 -335 -2
-589 -7 -591 -5 -1 -40 15 -79 36 l-70 38 -2 464 c-1 255 -2 472 -3 481 0 9
-15 33 -34 53 l-35 36 -377 -2 -378 -2 -10 22 c-14 33 17 85 73 120 l46 30
379 0 c359 1 380 0 410 -19z m-281 -275 c19 -8 49 -32 66 -54 l31 -39 0 -586
c0 -366 -4 -586 -10 -586 -5 0 -32 13 -60 30 -28 16 -54 30 -59 30 -4 0 -34
14 -66 30 -32 17 -66 30 -76 30 -9 0 -22 7 -29 15 -7 8 -18 15 -25 15 -8 0
-26 7 -42 15 -57 29 -120 55 -133 55 -8 0 -34 -9 -59 -21 -25 -11 -61 -27 -79
-34 -108 -47 -231 -103 -252 -115 -72 -42 -102 -52 -111 -39 -5 8 -7 27 -4 43
3 16 5 275 5 576 l0 548 27 33 c60 71 46 69 464 69 308 0 383 -3 412 -15z"/>
    <path d="M5556 2347 c-71 -40 -87 -103 -95 -360 -1 -35 -3 -38 -23 -32 -13 4
-34 14 -47 24 -41 28 -105 60 -123 60 -9 1 -24 8 -32 17 -22 22 -269 23 -291
1 -8 -8 -29 -17 -48 -21 -23 -4 -57 -28 -107 -76 -41 -39 -78 -70 -82 -70 -15
0 -90 55 -123 90 -33 35 -113 79 -133 72 -6 -2 -12 3 -12 11 0 21 -241 13
-274 -9 -13 -8 -30 -12 -38 -9 -9 4 -29 -5 -46 -19 -16 -15 -33 -26 -37 -26
-4 0 -26 -14 -50 -31 -24 -17 -50 -29 -58 -26 -9 3 -17 27 -21 64 -9 75 -31
126 -79 185 -82 101 -136 118 -413 125 -182 5 -219 3 -263 -12 -61 -20 -106
-70 -118 -129 -10 -49 -10 -861 0 -894 13 -48 44 -88 87 -112 44 -24 50 -24
260 -24 289 0 331 10 433 106 40 37 77 68 84 68 6 0 40 -24 75 -53 111 -93
135 -105 223 -115 95 -12 250 -1 286 19 60 32 108 70 129 99 22 31 67 60 94
60 9 0 21 -11 28 -24 15 -27 109 -109 153 -133 22 -12 66 -18 165 -21 168 -5
223 6 282 59 24 22 54 42 68 45 14 4 31 12 39 18 9 7 16 7 18 1 13 -36 34 -63
71 -92 39 -29 51 -33 107 -33 35 0 75 4 89 10 22 8 76 59 97 92 8 12 78 -23
114 -56 39 -36 88 -49 164 -43 84 6 113 20 148 69 l27 40 -18 47 c-10 25 -23
60 -30 78 -7 18 -20 41 -29 51 -9 10 -17 23 -17 28 0 6 -13 23 -30 39 -16 16
-30 38 -30 50 0 12 -9 30 -20 40 -24 21 -26 67 -5 85 22 18 45 5 45 -27 0 -38
47 -101 94 -126 37 -19 60 -21 220 -23 135 -2 181 -6 188 -16 4 -7 8 -42 7
-78 -2 -94 16 -169 49 -203 73 -79 213 -77 291 4 21 21 46 39 55 39 20 0 61
-24 101 -61 62 -55 179 -47 249 18 37 34 78 63 90 63 2 0 20 -22 40 -49 45
-60 92 -77 193 -66 63 7 69 10 112 54 68 70 75 75 103 60 13 -7 47 -30 77 -52
74 -55 124 -67 267 -68 146 -2 175 7 257 73 92 73 112 123 88 216 -12 44 -10
50 37 126 9 15 12 47 8 111 -5 92 -29 168 -71 229 -32 45 -113 126 -127 126
-7 0 -27 9 -44 19 -27 17 -51 19 -163 19 -124 -1 -134 -2 -193 -31 -34 -16
-76 -44 -93 -63 -17 -18 -42 -35 -55 -36 -21 -3 -25 2 -32 37 -4 22 -7 76 -6
120 1 71 -1 85 -25 122 -42 67 -87 90 -188 98 -98 7 -132 -2 -191 -53 -37 -33
-97 -145 -119 -222 -7 -25 -21 -59 -31 -76 -10 -17 -18 -40 -18 -52 0 -11 -9
-30 -20 -43 -20 -23 -21 -23 -33 -5 -7 11 -21 29 -33 40 -11 12 -26 41 -33 66
-7 25 -26 71 -42 102 -16 32 -29 64 -29 73 0 34 -74 126 -122 151 -41 22 -138
28 -198 14 -57 -14 -115 -57 -133 -99 -5 -14 -13 -106 -16 -204 -4 -120 -10
-180 -18 -185 -6 -4 -55 -3 -108 2 -66 6 -132 6 -204 -2 -58 -6 -107 -10 -108
-9 -1 1 5 26 12 55 22 82 -5 126 -93 156 -70 24 -171 19 -229 -11 l-42 -22
-16 22 c-11 15 -15 47 -15 113 0 103 -11 147 -49 187 -55 60 -163 76 -235 34z
m191 -329 c-3 -156 -8 -293 -12 -305 -5 -15 -3 -23 4 -23 13 0 13 1 138 151
l95 116 97 7 c53 3 105 7 116 9 26 3 32 -29 9 -54 -9 -10 -21 -19 -25 -19 -13
0 -234 -230 -237 -247 -2 -8 7 -27 20 -41 14 -15 60 -76 104 -137 43 -60 102
-136 131 -167 77 -84 75 -88 -56 -88 l-109 0 -31 39 c-17 21 -31 41 -31 44 0
3 -25 42 -55 87 -31 44 -60 92 -65 105 -14 38 -38 42 -68 11 -27 -26 -27 -27
-24 -156 l4 -130 -96 0 c-53 0 -96 3 -96 8 -1 14 -1 1057 0 1065 0 4 43 7 96
7 l96 0 -5 -282z m-2106 202 c127 -51 181 -119 186 -240 4 -83 -23 -142 -84
-183 -50 -33 -48 -48 12 -77 53 -26 84 -83 92 -168 13 -137 -46 -242 -164
-294 -56 -25 -65 -26 -305 -30 -135 -1 -249 0 -253 3 -4 5 -9 850 -5 999 0 6
85 10 235 10 212 0 239 -2 286 -20z m3368 -2 c5 -13 23 -69 41 -126 18 -56 36
-105 41 -108 5 -3 9 -15 9 -28 0 -12 7 -31 15 -42 8 -10 15 -28 15 -39 0 -11
7 -29 15 -39 8 -11 15 -28 15 -38 0 -9 6 -32 14 -50 26 -60 44 -112 61 -173
26 -94 23 -89 40 -75 8 7 20 31 26 54 27 97 46 154 128 381 48 132 92 254 97
270 l9 30 128 0 128 0 0 -505 1 -505 -100 -3 c-74 -2 -101 1 -104 10 -7 18 9
426 21 533 6 50 13 117 17 150 l6 60 -26 -24 c-14 -14 -26 -30 -26 -37 0 -21
-90 -287 -150 -444 -12 -30 -35 -95 -51 -144 -16 -50 -35 -93 -42 -98 -6 -4
-40 -8 -74 -8 l-63 0 -16 38 c-9 20 -20 51 -24 67 -5 17 -29 84 -55 149 -25
65 -64 176 -86 245 -22 69 -45 140 -50 156 -6 17 -14 43 -18 59 -7 32 -26 45
-33 24 -3 -7 -1 -51 3 -98 20 -231 28 -358 31 -490 l3 -145 -103 0 -103 0 0
503 c0 276 0 504 1 507 0 3 56 5 125 5 121 0 126 -1 134 -22z m-2541 -263 c58
-29 123 -99 154 -164 18 -40 21 -65 22 -181 0 -128 -1 -138 -27 -191 -34 -67
-85 -122 -152 -160 -47 -27 -57 -29 -159 -29 -96 0 -114 3 -160 26 -28 14 -59
33 -70 42 -29 26 -96 119 -96 134 0 7 -7 31 -15 53 -20 57 -19 198 2 260 24
71 77 148 121 178 78 53 91 56 214 57 105 0 121 -2 166 -25z m787 -1 c100 -52
155 -130 181 -256 40 -189 -36 -366 -189 -442 -45 -23 -63 -26 -154 -26 -95 0
-109 2 -162 30 -88 44 -154 128 -174 220 -12 53 -13 198 -2 253 16 84 90 178
174 222 41 21 60 24 161 25 105 0 119 -2 165 -26z m3184 -9 c29 -19 61 -45 72
-58 48 -56 81 -169 83 -279 l1 -63 -244 2 -243 2 5 -36 c19 -114 176 -182 275
-119 20 13 46 33 56 45 11 11 26 21 35 21 22 -1 101 -74 101 -93 0 -21 -72
-79 -138 -112 -48 -24 -63 -26 -160 -26 -100 1 -111 3 -170 33 -156 79 -219
242 -177 458 18 90 94 194 174 235 41 21 59 24 161 25 l115 0 54 -35z m-1811
-265 c6 -102 20 -95 -200 -95 l-193 1 -6 64 c-4 44 -2 68 6 75 7 6 89 10 201
10 l189 -1 3 -54z"/>
    <path d="M3319 2085 c0 -3 -1 -62 -1 -132 l-1 -128 104 -3 c92 -2 108 1 144
21 68 38 91 119 54 189 -20 37 -92 58 -200 58 -54 0 -99 -2 -100 -5z"/>
    <path d="M3320 1671 c-1 -3 -1 -71 -2 -151 l-1 -145 105 -3 c119 -3 170 12
210 64 19 24 23 40 22 101 0 75 -12 101 -57 125 -21 11 -277 20 -277 9z m199
-124 c14 -18 -29 -60 -55 -55 -20 3 -29 30 -20 54 7 18 60 18 75 1z"/>
    <path d="M4229 1825 c-62 -41 -91 -109 -92 -219 -1 -149 60 -236 166 -236 59
0 108 33 139 94 17 33 21 60 21 147 1 94 -2 110 -23 143 -12 21 -41 51 -63 67
-49 36 -98 37 -148 4z m95 -126 c42 -20 47 -127 8 -171 -26 -31 -51 -22 -72
25 -21 48 -15 104 16 138 20 22 17 22 48 8z"/>
    <path d="M5018 1825 c-50 -34 -74 -78 -86 -160 -11 -80 3 -183 31 -226 31 -47
72 -69 127 -69 89 0 143 59 159 173 13 92 -1 188 -35 233 -57 75 -131 93 -196
49z m116 -146 c16 -14 24 -108 12 -132 -6 -12 -24 -26 -40 -32 -25 -9 -31 -6
-52 20 -35 44 -34 116 3 144 25 21 55 21 77 0z"/>
    <path d="M8171 1802 c-47 -41 -53 -52 -55 -87 l-1 -40 145 0 145 0 -1 38 c-2
68 -75 137 -144 137 -29 0 -46 -9 -89 -48z"/>
  </g>
</svg>
