<?xml version="1.0" standalone="no"?>
<!DOCTYPE svg PUBLIC "-//W3C//DTD SVG 20010904//EN"
 "http://www.w3.org/TR/2001/REC-SVG-20010904/DTD/svg10.dtd">
<svg version="1.0" 
  xmlns="http://www.w3.org/2000/svg" viewBox="0 0 300.000000 182.000000" preserveAspectRatio="xMidYMid meet">
  <metadata>
Created by potrace 1.10, written by Peter Selinger 2001-2011
  </metadata>
  <g transform="translate(0.000000,182.000000) scale(0.050000,-0.050000)" fill="#32327b" stroke="none">
    <path d="M5369 3274 c-446 -518 -934 -1283 -1014 -1591 -6 -24 -26 -43 -45
-43 -167 0 -230 -119 -230 -433 0 -371 31 -434 235 -476 l115 -24 -69 -43
c-38 -24 -110 -49 -160 -56 -50 -7 -104 -24 -121 -37 -47 -39 -125 -26 -190
32 -33 30 -82 71 -110 93 l-50 40 90 11 c50 7 113 10 140 7 45 -4 51 4 56 81
l6 85 -81 0 -81 0 0 100 c0 98 1 100 60 100 57 0 60 4 60 80 0 76 -3 80 -60
80 -57 0 -60 4 -60 87 0 94 91 114 156 35 22 -27 23 -26 5 12 -12 24 -21 80
-21 125 0 73 -5 81 -50 81 -32 0 -73 25 -110 65 -67 74 -73 95 -29 95 24 0 30
19 25 85 l-6 85 -75 -7 -75 -6 0 101 0 102 70 0 c68 0 70 2 70 80 0 78 -2 80
-70 80 -70 0 -70 0 -70 92 l0 92 70 -13 70 -13 0 91 0 91 -185 0 -185 0 0
-430 0 -430 145 0 c140 0 147 -2 166 -53 11 -30 36 -65 55 -80 29 -22 19 -26
-76 -26 l-110 -1 -1 -424 c-2 -372 2 -427 32 -457 19 -19 72 -132 119 -252
101 -259 89 -244 145 -192 25 24 159 96 298 162 l253 120 14 100 c8 59 25 105
43 111 43 17 87 138 87 243 0 50 8 107 18 125 25 47 82 244 71 244 -5 0 -27
-29 -49 -65 l-40 -65 0 63 c0 165 -65 272 -183 298 l-59 13 91 57 c50 32 91
66 91 76 0 11 26 47 58 81 32 34 51 62 42 62 -9 0 3 36 27 80 85 157 140 96
76 -86 -83 -238 18 -349 119 -131 102 223 199 405 339 637 105 174 128 229
135 320 5 61 25 133 43 160 64 93 64 98 0 67 -82 -41 -98 -19 -35 48 72 77
120 180 106 226 -8 25 3 59 29 92 41 52 55 108 26 106 -8 0 -79 -74 -156 -165z
m-239 -672 c-7 -23 -28 -42 -46 -42 -27 -1 -28 -4 -7 -18 18 -11 20 -22 6 -30
-11 -7 -33 -37 -48 -67 -44 -87 -83 -151 -110 -181 -14 -15 -25 -36 -25 -46 0
-40 -86 -134 -113 -124 -34 13 -34 35 -2 70 14 15 47 70 73 122 28 54 59 92
73 87 16 -7 22 10 19 50 -4 44 1 54 16 39 12 -12 31 -22 43 -22 12 0 8 10 -9
21 -26 17 -26 22 5 40 19 12 35 30 35 41 0 21 86 116 97 107 4 -3 1 -25 -7
-47z m-738 -1232 l2 -120 105 -6 c89 -5 102 -11 91 -40 -8 -19 -16 -47 -19
-64 -3 -20 -33 -32 -88 -36 l-83 -6 0 -97 c0 -104 -35 -158 -76 -117 -26 26
-35 578 -10 603 45 45 76 -2 78 -117z"/>
    <path d="M585 2620 c-96 -58 -109 -113 -101 -444 8 -374 28 -406 256 -406 183
0 248 57 268 235 l12 115 -120 0 -120 0 4 -99 c5 -108 -6 -132 -53 -114 -46
18 -46 588 0 606 47 18 59 -7 59 -127 l0 -111 110 0 110 0 -7 128 c-4 70 -15
143 -26 162 -51 96 -274 127 -392 55z"/>
    <path d="M1198 2631 c-84 -47 -103 -123 -103 -427 0 -312 21 -381 124 -424 97
-40 254 -16 318 48 l53 53 0 329 0 329 -54 54 c-66 67 -251 87 -338 38z m182
-421 c0 -262 -5 -310 -30 -310 -16 0 -30 16 -31 35 -1 84 -1 518 0 550 0 19
15 35 31 35 25 0 30 -48 30 -310z"/>
    <path d="M2955 2630 c-155 -88 -111 -337 83 -469 120 -81 156 -144 131 -224
-23 -73 -78 -35 -85 58 l-6 85 -99 0 -99 0 0 -91 c0 -159 77 -229 250 -229
305 0 356 350 77 534 -125 82 -191 241 -93 223 24 -5 38 -28 42 -72 6 -64 9
-65 105 -65 l99 0 0 79 c0 167 -236 266 -405 171z"/>
    <path d="M1695 2275 c7 -458 36 -515 264 -515 213 0 239 55 246 515 l5 365
-115 0 -115 0 0 -370 c0 -316 -4 -370 -30 -370 -26 0 -30 54 -30 370 l0 370
-115 0 -115 0 5 -365z"/>
    <path d="M2300 2210 l0 -430 110 0 110 0 0 202 c0 279 47 272 56 -9 l5 -193
109 0 109 0 -11 165 c-14 225 -21 248 -73 263 l-45 12 50 26 c45 22 51 39 56
160 9 202 -30 234 -285 234 l-191 0 0 -430z m280 190 c0 -76 -7 -100 -30 -100
-23 0 -30 24 -30 100 0 76 7 100 30 100 23 0 30 -24 30 -100z"/>
    <path d="M3490 1721 c-22 -9 -57 -35 -78 -59 -33 -36 -60 -42 -205 -42 l-167
0 0 -437 0 -437 110 1 110 2 0 207 c0 289 47 280 56 -11 l5 -202 105 3 104 4
0 187 c-1 184 -2 188 -60 235 -42 33 -50 48 -27 48 89 0 119 234 42 337 l-40
55 57 33 c89 51 79 113 -12 76z m-174 -348 c5 -73 0 -93 -25 -93 -24 0 -31 23
-31 102 0 132 47 125 56 -9z"/>
    <path d="M1368 1611 c-116 -50 -128 -88 -128 -414 0 -407 30 -457 271 -457
164 0 249 85 249 248 l0 112 -110 0 -110 0 0 -110 c0 -97 -5 -110 -41 -110
-58 0 -52 605 6 616 30 6 35 -10 35 -125 l0 -131 110 0 110 0 0 126 c0 226
-179 338 -392 245z"/>
    <path d="M1970 1609 c-113 -55 -167 -352 -121 -661 37 -247 389 -302 483 -76
35 84 36 527 2 628 -42 122 -226 178 -364 109z m166 -419 c5 -293 -11 -382
-57 -310 -21 34 -26 586 -5 607 43 44 56 -20 62 -297z"/>
    <path d="M2452 1187 l2 -437 108 0 108 0 -7 184 c-8 200 3 243 50 204 22 -19
28 -67 25 -206 l-4 -182 103 -5 103 -5 0 182 c0 186 -20 258 -71 258 -16 0
-29 9 -29 20 0 11 13 20 29 20 85 0 95 265 14 346 -38 38 -70 45 -239 51
l-194 6 2 -436z m278 193 c0 -69 -8 -91 -35 -96 -30 -6 -35 9 -35 96 0 87 5
102 35 96 27 -5 35 -27 35 -96z"/>
    <path d="M4648 1588 c7 -17 12 -59 12 -92 0 -57 4 -60 60 -49 l60 12 0 -360 0
-361 113 6 113 6 2 350 2 350 65 -7 c65 -6 65 -6 65 85 l0 92 -252 0 c-222 0
-251 -4 -240 -32z"/>
  </g>
</svg>
