<svg viewBox="0 0 13 26">
  <path d="M11.7 10.4C10.3 4.3 7.4 2.7 6.7 1.6 6.3 1.1 6.1 0.5 5.8 0 5.8 0.5 5.7 0.9 5.3 1.3 4.3 2.1 0.4 5.3 0 12.2-0.3 18.7 4.8 22.6 5.5 23 6 23.3 6.7 23 7 22.8 9.4 21.1 12.8 16.7 11.7 10.4" fill="#10AA50"></path>
  <path d="M6 19.5C5.8 21.1 5.7 22 5.4 22.9 5.4 22.9 5.6 24.4 5.8 26L6.3 26C6.5 24.9 6.7 23.8 6.9 22.7 6.2 22.3 6 20.9 6 19.5Z" fill="#B8C4C2"></path>
  <path d="M7 22.8L7 22.8C6.3 22.4 6.1 20.9 6.1 19.6 6.3 17.3 6.3 15 6.3 12.6 6.2 11.4 6.3 1.5 6 0 6.2 0.5 6.4 1 6.7 1.4 7.4 2.6 10.3 4.2 11.7 10.3 12.8 16.6 9.5 21.1 7 22.8Z" fill="#12924F"></path>
</svg>